<?xml version="1.0" encoding="utf-8"?>
<!-- Generator: Adobe Illustrator 15.0.0, SVG Export Plug-In . SVG Version: 6.00 Build 0)  -->
<!DOCTYPE svg PUBLIC "-//W3C//DTD SVG 1.1 Basic//EN" "http://www.w3.org/Graphics/SVG/1.1/DTD/svg11-basic.dtd">
<svg version="1.1" baseProfile="basic" id="Layer_1"
	 xmlns="http://www.w3.org/2000/svg" xmlns:xlink="http://www.w3.org/1999/xlink" x="0px" y="0px" width="356px" height="319.333px"
	 viewBox="0 0 356 319.333" xml:space="preserve">
<path fill="#808285" d="M21.103,226.59h109.495l200.99-61.497c0,0,0-41.999,0-74.997S306.766,25.745,267,34.6
	c-39.765,8.855-133.402,29.999-179.9,41.998s-65.997,31.498-65.997,53.997S21.103,226.59,21.103,226.59z"/>
<path fill="#A7A9AC" d="M130.598,226.59c0,0,0-34.358,0-96.754S24.103,70.599,21.103,130.595c0,44.998,0,95.995,0,95.995H130.598z"
	/>
<path fill="#BE1E2D" d="M173.751,155.448c2.25,14.146-16.042,20.143-21.749,0c0,0-8.809-93.155-15-114.848
	c-7.5,1.5,48.209-21.616,48.209-21.616l10.038,28.264l-32.749,24.851C162.501,72.098,171.501,141.303,173.751,155.448z"/>
<path fill="#3A3939" d="M172.248,213.686l25.946-7.938c0,0,0,69.763,0,89.34s-26.774,20.982-25.946,0
	C173.067,274.331,172.248,213.686,172.248,213.686z"/>
</svg>
